<?xml version="1.0" encoding="UTF-8"?>
<svg id="Layer_1" data-name="Layer 1" xmlns="http://www.w3.org/2000/svg" xmlns:xlink="http://www.w3.org/1999/xlink" viewBox="0 0 1277.97 1096.75">
  <defs>
    <style>
      .cls-1 {
        fill: url(#linear-gradient);
      }

      .cls-1, .cls-2, .cls-3, .cls-4, .cls-5, .cls-6 {
        stroke-width: 0px;
      }

      .cls-2 {
        fill: url(#linear-gradient-5);
      }

      .cls-3 {
        fill: url(#linear-gradient-2);
      }

      .cls-4 {
        fill: #9354a1;
      }

      .cls-5 {
        fill: url(#linear-gradient-3);
      }

      .cls-6 {
        fill: url(#linear-gradient-4);
      }
    </style>
    <linearGradient id="linear-gradient" x1="229.78" y1="910.59" x2="229.78" y2="827.06" gradientTransform="translate(684.03 93.38) rotate(45.18)" gradientUnits="userSpaceOnUse">
      <stop offset="0" stop-color="#9354a1"/>
      <stop offset="1" stop-color="#0e5699"/>
    </linearGradient>
    <linearGradient id="linear-gradient-2" gradientTransform="matrix(1,0,0,1,0,0)" xlink:href="#linear-gradient"/>
    <linearGradient id="linear-gradient-3" x1="1048.19" y1="910.42" x2="1048.19" y2="826.89" gradientTransform="translate(921.23 -486.76) rotate(45)" xlink:href="#linear-gradient"/>
    <linearGradient id="linear-gradient-4" x1="1048.19" y1="910.42" x2="1048.19" y2="826.89" gradientTransform="translate(921.23 -486.76) rotate(45)" xlink:href="#linear-gradient"/>
    <linearGradient id="linear-gradient-5" x1="1048.19" y1="910.42" x2="1048.19" y2="826.89" gradientTransform="matrix(1,0,0,1,0,0)" xlink:href="#linear-gradient"/>
  </defs>
  <rect class="cls-1" x="229.74" y="809.8" width=".08" height="118.05" transform="translate(-548.43 419.33) rotate(-45.18)"/>
  <rect class="cls-1" x="229.74" y="809.8" width=".08" height="118.05" transform="translate(-548.43 419.33) rotate(-45.18)"/>
  <path class="cls-4" d="m200.72,1006.14l-110.11-110.11c-7.87-7.87-20.57-7.87-28.44,0l-56.27,56.27c-7.87,7.87-7.87,20.57,0,28.44l110.11,110.11c7.87,7.87,20.57,7.87,28.44,0l56.27-56.27c7.87-7.87,7.87-20.63,0-28.44Z"/>
  <path class="cls-3" d="m188.08,827.06l-.06.06,83.47,83.47.06-.06-83.47-83.47Z"/>
  <path class="cls-4" d="m996.98,22.31l-79.82,18.04L210.56,746.96l-26.64-26.64v-73.92l-125.46-.56v125.85l73.92-.23,24.17,24.17,2.92,2.92-41.59,41.59c-7.87,7.87-7.87,20.57,0,28.44l110.17,110.23c7.87,7.81,20.63,7.81,28.44,0l41.65-41.59,25.35,25.35v73.69h126.19v-125.52l-76.05-.39-24.68-25.01,282.23-282.23,7.87-7.87h.06l416.45-416.45,17.26-80.21,2.02-9.05.06-.06L1094.56.17l-97.58,22.15ZM147.32,735.05h-50.36v-50.36h50.36v50.36Zm213.93,213.03h50.42v50.42h-50.42v-50.42Zm167.67-462.94l28.22-28.22,26.53-26.59,29.06-29.12,26.31-26.36,28.22-28.22,251.65-251.99,26.64,26.42-251.93,251.93-28.22,28.22-26.31,26.36-29.12,29.06-345.12,345.12-26.08-26.08,290.15-290.54Zm-257.44,425.45l-28.39,28.39-83.47-83.47,28.44-28.44,83.47,83.47-.06.06Zm449.5-453.66l-26.31,26.25-29.06,29.12-26.53,26.53-28.27,28.22-290.32,290.32-26.53-26.53,290.32-290.32,28.22-28.22,26.59-26.53,29.06-29.12,26.31-26.31,28.27-28.22,252.04-252.1,26.64,26.47-280.43,280.43Zm320.62-369.46l-13.15,63.12-.06.11-83.13-81.84,61.89-14.84c20.29-4.83,38.73,13.04,34.46,33.44Z"/>
  <rect class="cls-5" x="989.16" y="868.62" width="118.04" height=".08" transform="translate(-307.23 995.6) rotate(-45)"/>
  <rect class="cls-6" x="989.16" y="868.62" width="118.04" height=".08" transform="translate(-307.23 995.6) rotate(-45)"/>
  <path class="cls-4" d="m1272.07,952.13l-56.27-56.27c-7.87-7.87-20.57-7.87-28.44,0l-110.11,110.11c-7.87,7.87-7.87,20.57,0,28.44l56.27,56.27c7.87,7.87,20.57,7.87,28.44,0l110.11-110.11c7.87-7.87,7.87-20.57,0-28.44Z"/>
  <path class="cls-2" d="m1089.89,826.89l-83.47,83.47.06.06,83.47-83.47-.06-.06Z"/>
  <path class="cls-4" d="m1145.6,771.3l73.92.23v-125.85l-125.46.56v73.92l-26.64,26.64-262.72-262.72-28.27,28.27,262.78,263.17-26.08,26.08-262.95-262.95-29.12,29.06,262.95,262.95-26.53,26.53-262.95-262.95-28.22,28.22,262.72,262.72-24.68,25.01-76.05.39v125.52h126.19v-73.69l25.35-25.35,41.65,41.6c7.81,7.81,20.57,7.81,28.44,0l110.17-110.23c7.87-7.87,7.87-20.57,0-28.44l-41.59-41.59,2.92-2.92,24.17-24.17Zm-14.95-86.79h50.36v50.36h-50.36v-50.36Zm-213.93,313.82h-50.42v-50.42h50.42v50.42Zm118.15-59.53l-28.39-28.39-.06-.06,83.47-83.47,28.44,28.44-83.47,83.47Zm-451.19-619.37l28.22-28.16L360.81,40.19l-79.82-18.04L183.41,0l19.67,89.32.06.06,2.02,9.05,17.26,80.21,251.03,251.03,28.22-28.22-225.12-225.12,26.64-26.47,225.06,225.06,29.06-29.12-224.89-224.89,26.64-26.42,224.61,224.95ZM249.57,150.53l-.06-.11-13.15-63.12c-4.27-20.4,14.16-38.28,34.46-33.44l61.89,14.84-83.13,81.84Z"/>
</svg>